<svg xmlns="http://www.w3.org/2000/svg" viewBox="0 0 2520 750"><path fill="#2D2E2D" d="M986.9 493.9h49.2v56.9c0 10.6-1.6 20.7-4.7 30.3-3.1 9.6-8 18.2-14.6 25.6-6.6 7.5-15 13.3-25.2 17.7-10.2 4.3-22.3 6.5-36.4 6.5-14.6 0-27.1-2.2-37.4-6.5-10.3-4.3-18.8-10.2-25.4-17.5-6.6-7.3-11.4-15.8-14.4-25.6s-4.5-20-4.5-30.9V371.5h52v54H1036V463H925.6v82.1c0 12.7 2.4 22.6 7.1 29.5 4.7 6.9 12.5 10.4 23.4 10.4 10.6 0 18.3-3.4 23.4-10.2 5-6.8 7.5-16.4 7.5-28.8v-52.1zm166.6 136.9c-16.3 0-30.7-2.6-43.5-7.7-12.7-5.1-23.5-12.3-32.3-21.5-8.8-9.2-15.5-20.3-20.1-33.3-4.6-13-6.9-27.2-6.9-42.7 0-15.7 2.4-30.1 7.1-43.1 4.7-13 11.6-24.1 20.5-33.3 8.9-9.2 19.7-16.3 32.3-21.3 12.6-5 26.9-7.5 42.9-7.5 15.7 0 29.8 2.5 42.3 7.5 12.5 5 23.1 12.1 31.9 21.1 8.8 9.1 15.6 20.1 20.3 33.1 4.7 13 7.1 27.5 7.1 43.5s-2.4 30.4-7.1 43.3c-4.7 12.9-11.5 23.9-20.3 33.1-8.8 9.2-19.5 16.3-32.1 21.3-12.6 5-26.7 7.5-42.1 7.5zm0-44.3c32.2 0 48.4-20.3 48.4-61 0-40.4-16.1-60.5-48.4-60.5-32.2 0-48.4 20.2-48.4 60.5 0 40.7 16.2 61 48.4 61zm118.7 133.7V425.6h50.8l.4 24.4c12.2-19.8 30.7-29.7 55.7-29.7 12.5 0 24 2.4 34.7 7.3 10.7 4.9 19.8 11.9 27.4 21.1 7.6 9.2 13.5 20.5 17.9 33.7 4.3 13.3 6.5 28.3 6.5 45.1 0 15.2-1.8 29.1-5.5 41.6s-9 23.5-16 32.7c-7 9.2-15.6 16.3-25.8 21.3-10.2 5-21.7 7.5-34.7 7.5-24.7 0-44.4-10.4-59.3-31.3V720h-52.1zm94.2-134.5c30.3 0 45.5-20.6 45.5-61.8 0-17.9-4.2-32.4-12.6-43.7-8.4-11.2-19.2-16.9-32.5-16.9-12.7 0-23.4 5.3-31.9 15.8-8.5 10.6-12.8 24.4-12.8 41.4 0 43.5 14.8 65.2 44.3 65.2zm121.5 39.8V463h-29.7v-37.4h29.7c0-48.8 28.3-73.1 84.9-73.1v42.7c-6.8 0-12.3.5-16.5 1.4-4.2 1-7.5 2.6-10 5.1-2.4 2.4-4.1 5.6-5.1 9.5-1 3.9-1.4 8.7-1.4 14.4h34.1V463h-34.1v162.5h-51.9z"/><path fill="#F1F2F2" d="M1585.8 401.6v-49.2h52.8v49.2h-52.8zm0 223.9V425.6h52.8v199.9h-52.8zm123.6-86.1c.8 15.2 5.2 27.2 13.2 36.2 8 8.9 18.5 13.4 31.5 13.4 8.7 0 16.3-2 23-5.9 6.6-3.9 10.9-9.4 12.8-16.5h54.4c-6.2 20.6-17.1 36.4-32.5 47.5-15.4 11.1-33.9 16.7-55.3 16.7-66.6 0-100-36.3-100-108.9 0-15.4 2.2-29.4 6.5-41.9s10.6-23.2 18.9-32.1c8.3-8.9 18.3-15.8 30.3-20.5 11.9-4.7 25.6-7.1 41-7.1 30.9 0 54.2 9.9 70.1 29.7 15.8 19.8 23.8 49.6 23.8 89.4h-137.7zm83.3-33.4c-.3-7.3-1.6-13.7-3.9-19.3-2.3-5.5-5.4-10.2-9.1-13.8-3.8-3.7-8.1-6.4-13-8.1-4.9-1.8-9.9-2.6-15-2.6-10.6 0-19.7 3.9-27.4 11.6-7.7 7.7-12.1 18.5-13.2 32.3h81.6zm190.9-19.9c-1.4-9.2-4.8-15.9-10.4-20.1-5.6-4.2-14-6.3-25.4-6.3-10.8 0-19 1.3-24.6 3.9-5.6 2.6-8.3 7-8.3 13.2 0 5.4 2.8 9.8 8.3 13 5.5 3.3 13.6 6.4 24.2 9.3 17.3 4.9 32 9 43.9 12.4 11.9 3.4 21.5 7.4 28.6 12 7.2 4.6 12.3 10.4 15.4 17.3 3.1 6.9 4.7 16.2 4.7 27.8 0 17.9-7.5 32.7-22.3 44.5-14.9 11.8-37 17.7-66.2 17.7-14.4 0-27.4-1.6-39-4.9-11.7-3.3-21.6-7.9-29.9-14-8.3-6.1-14.6-13.4-19.1-21.9-4.5-8.5-6.8-18.1-7.1-28.6h54.4c0 9.5 3.7 16.8 11.2 21.9 7.4 5.1 17.1 7.7 29.1 7.7 10 0 18.6-1.6 25.8-4.7 7.2-3.1 10.8-7.9 10.8-14.4 0-7.3-2.6-12.6-7.9-15.8-5.3-3.2-13.3-6.1-24.2-8.5-19.5-4.3-35.2-8.9-47.1-13.6-11.9-4.7-21.2-10-27.8-15.6-6.6-5.7-11.1-11.9-13.4-18.7-2.3-6.8-3.5-14.4-3.5-22.8 0-7.6 1.6-14.8 4.7-21.5 3.1-6.8 8.1-12.7 14.8-17.9 6.8-5.1 15.6-9.3 26.4-12.4 10.8-3.1 24.1-4.7 39.8-4.7 28.7 0 49.7 5.8 63 17.5 13.3 11.7 20.6 27.8 21.9 48.4h-50.8zm68.3 139.4v-54.9h56.5v54.9h-56.5zm204.4 0l-.4-24.4c-12.2 19.8-30.7 29.7-55.7 29.7-12.7 0-24.4-2.4-34.9-7.3-10.6-4.9-19.6-11.9-27.2-21.1-7.6-9.2-13.5-20.5-17.9-33.7-4.3-13.3-6.5-28.3-6.5-45.1 0-15.2 1.8-29.1 5.5-41.6 3.7-12.6 9-23.5 16-32.7 7-9.2 15.6-16.3 25.8-21.3 10.2-5 21.7-7.5 34.7-7.5 24.6 0 44.4 10.4 59.3 31.3v-99.1h52v273.1h-50.7zm-43.9-37.8c12.7 0 23.4-5.3 31.9-15.8 8.5-10.6 12.8-24.4 12.8-41.4 0-43.3-14.8-65-44.3-65-30.3 0-45.5 20.6-45.5 61.8 0 17.9 4.2 32.4 12.6 43.7 8.4 11.1 19.2 16.7 32.5 16.7zm164.1-48.3c.8 15.2 5.2 27.2 13.2 36.2 8 8.9 18.5 13.4 31.5 13.4 8.7 0 16.3-2 23-5.9 6.6-3.9 10.9-9.4 12.8-16.5h54.4c-6.2 20.6-17.1 36.4-32.5 47.5-15.4 11.1-33.9 16.7-55.3 16.7-66.6 0-100-36.3-100-108.9 0-15.4 2.2-29.4 6.5-41.9s10.6-23.2 18.9-32.1c8.3-8.9 18.3-15.8 30.3-20.5 11.9-4.7 25.6-7.1 41-7.1 30.9 0 54.2 9.9 70.1 29.7 15.8 19.8 23.8 49.6 23.8 89.4h-137.7zm83.3-33.4c-.3-7.3-1.6-13.7-3.9-19.3-2.3-5.5-5.4-10.2-9.1-13.8-3.8-3.7-8.1-6.4-13-8.1-4.9-1.8-9.9-2.6-15-2.6-10.6 0-19.7 3.9-27.4 11.6-7.7 7.7-12.1 18.5-13.2 32.3h81.6z"/><g><path fill="#2D2E2D" d="M1328.9 0c-27.1 0-242.6 55.5-290.4 81.3-46.3 25-237.2 137.7-249.2 144.8 15.9 17.8 24.7 37 24.7 57.1 0 9.3-2.5 19.7-6.1 28.6-.9 33.7.1-7.1-.9 20.9 14.4-.7 61.8-3.7 84.2-17.6 27.1-16.8 61.9-117.5 98.1-125.3 36.2-7.7 187.2-42.7 258.2-75s124-60.8 121.4-75c-2.5-14.2-12.9-39.8-40-39.8zm-64.6 51.4c-33.9 7-62.8 5.6-64.6-2.7-1.7-8.4 24.4-20.8 58.2-27.7 14.8-3.1 28.8-4.7 39.8-4.7 14.2 0 23.8 2.4 24.7 7.1 1.9 8.3-24.2 21-58.1 28z"/><path fill="#F1F2F2" d="M808 311.3c-33 78.3-199.3 137.9-399.4 137.9-223.9 0-405.5-74.6-405.5-166.5v-.5h-.5s-28.9 157.7 106.7 375.9c23.3 52.1 147.5 91.9 293.8 91.9 139 0 258.3-36.1 289.6-84.3 78-125.5 93.5-207 106.9-278.5 3.3-17.6 11.3-60.9 8.4-75.9z"/><path fill="#F1F2F2" d="M235.8 399.9c4.6-22.4 79.6-40.4 171.4-40.4 90 0 163.9 17.2 171.2 39 122.3-23.7 206-71.1 206-126.1 0-78.6-170.8-142.3-381.3-142.3s-381 63.7-381 142.3c0 56.2 87.2 104.4 213.7 127.5z"/></g></svg>